<svg width="80" height="80" viewBox="0 0 80 80" fill="none" xmlns="http://www.w3.org/2000/svg">
<g id="DeviceMobile">
<path id="Vector" d="M20 17.5H60V62.5H20V17.5Z" fill="white" fill-opacity="0.1"/>
<path id="Vector_2" fill-rule="evenodd" clip-rule="evenodd" d="M17.5 12.5C17.5 12.5 17.5 9.3934 19.6967 7.1967C19.6967 7.1967 21.8934 5 25 5H55C55 5 58.1066 5 60.3033 7.1967C60.3033 7.1967 62.5 9.3934 62.5 12.5V67.5C62.5 67.5 62.5 70.6066 60.3033 72.8033C60.3033 72.8033 58.1066 75 55 75H25C25 75 21.8934 75 19.6967 72.8033C19.6967 72.8033 17.5 70.6066 17.5 67.5V12.5ZM22.5 12.5L22.5 67.5C22.5 67.5 22.5 68.5355 23.2322 69.2678C23.2322 69.2678 23.9645 70 25 70H55C55 70 56.0355 70 56.7678 69.2678C56.7678 69.2678 57.5 68.5355 57.5 67.5V12.5C57.5 12.5 57.5 11.4645 56.7678 10.7322C56.7678 10.7322 56.0355 10 55 10L25 10C25 10 23.9645 10 23.2322 10.7322C23.2322 10.7322 22.5 11.4645 22.5 12.5Z" fill="white"/>
<path id="Vector_3" d="M20 20H60C61.3807 20 62.5 18.8807 62.5 17.5C62.5 16.1193 61.3807 15 60 15H20C18.6193 15 17.5 16.1193 17.5 17.5C17.5 18.8807 18.6193 20 20 20Z" fill="white"/>
<path id="Vector_4" d="M20 65H60C61.3807 65 62.5 63.8807 62.5 62.5C62.5 61.1193 61.3807 60 60 60H20C18.6193 60 17.5 61.1193 17.5 62.5C17.5 63.8807 18.6193 65 20 65Z" fill="white"/>
</g>
</svg>
