<svg width="16" height="17" viewBox="0 0 16 17" fill="none" xmlns="http://www.w3.org/2000/svg">
<g clip-path="url(#clip0_8_2077)">
<path d="M8.00002 0.714935L10.8174 4.83694L15.6087 6.24294L12.5587 10.1963L12.702 15.1869L8.00002 13.5083L3.29802 15.1869L3.44136 10.1963L0.391357 6.24294L5.18269 4.83694L8.00002 0.714935ZM6.66669 8.3816H5.33336C5.33335 9.07731 5.60522 9.74547 6.09096 10.2435C6.5767 10.7416 7.23785 11.0301 7.93334 11.0475C8.62882 11.0649 9.30357 10.8098 9.81361 10.3366C10.3236 9.8635 10.6286 9.20977 10.6634 8.51494L10.6667 8.3816H9.33336C9.33491 8.72759 9.2019 9.06063 8.96244 9.31037C8.72298 9.56011 8.39581 9.70698 8.05006 9.71996C7.70432 9.73295 7.36706 9.61102 7.10955 9.37994C6.85203 9.14886 6.69442 8.82673 6.67002 8.4816L6.66669 8.3816Z" fill="#F5F5FF"/>
</g>
<defs>
<clipPath id="clip0_8_2077">
<rect width="16" height="16" fill="white" transform="translate(0 0.381592)"/>
</clipPath>
</defs>
</svg>
