<svg width="53" height="51" viewBox="0 0 53 51" fill="none" xmlns="http://www.w3.org/2000/svg">
<path d="M26.5 0L36.3124 14.5261L53 19.4809L42.3772 33.4127L42.8765 51L26.5 45.0843L10.1235 51L10.6228 33.4127L0 19.4809L16.6876 14.5261L26.5 0ZM21.8562 27.0177H17.2123C17.2123 29.4694 18.1592 31.824 19.851 33.5792C21.5428 35.3343 23.8455 36.351 26.2677 36.4124C28.69 36.4737 31.0401 35.5747 32.8165 33.9073C34.5929 32.24 35.6549 29.9362 35.776 27.4876L35.7877 27.0177H31.1438C31.1492 28.237 30.686 29.4106 29.852 30.2907C29.0179 31.1708 27.8785 31.6884 26.6743 31.7341C25.4701 31.7799 24.2955 31.3502 23.3986 30.5359C22.5017 29.7216 21.9528 28.5863 21.8678 27.3701L21.8562 27.0177Z" fill="#CECEFF"/>
</svg>
