<svg width="33" height="34" viewBox="0 0 33 34" fill="none" xmlns="http://www.w3.org/2000/svg">
<path d="M16.5 0L22.6096 9.68408L33 12.9873L26.3858 22.2751L26.6967 34L16.5 30.0562L6.30334 34L6.61417 22.2751L0 12.9873L10.3904 9.68408L16.5 0ZM13.6086 18.0118H10.7171C10.7171 19.6463 11.3067 21.216 12.36 22.3861C13.4134 23.5562 14.8472 24.234 16.3554 24.2749C17.8636 24.3158 19.3268 23.7165 20.4329 22.6049C21.539 21.4933 22.2002 19.9575 22.2757 18.325L22.2829 18.0118H19.3914C19.3948 18.8246 19.1064 19.6071 18.5871 20.1938C18.0678 20.7805 17.3583 21.1256 16.6085 21.1561C15.8587 21.1866 15.1274 20.9001 14.5689 20.3573C14.0105 19.8144 13.6687 19.0576 13.6158 18.2467L13.6086 18.0118Z" fill="#CECEFF"/>
</svg>
